<svg xmlns="http://www.w3.org/2000/svg" width="24" height="24" viewBox="0 0 24 24"><defs><style>.a{fill:#fff;stroke:#707070;opacity:0;}.b{fill:#f5c72c;stroke:#f5c72c;stroke-linejoin:round;stroke-width:1.5px;}.c{stroke:none;}.d{fill:none;}</style></defs><g transform="translate(-160.5 -740)"><g class="a" transform="translate(160.5 740)"><rect class="c" width="24" height="24"/><rect class="d" x="0.5" y="0.5" width="23" height="23"/></g><path class="b" d="M104.236,77.355l-1.968,4.019a1.181,1.181,0,0,1-.891.649l-4.507.653a1.18,1.18,0,0,0-.655,2.011l3.27,3.2a1.178,1.178,0,0,1,.337,1.048l-.769,4.374a1.18,1.18,0,0,0,1.717,1.246l3.963-2.112a1.177,1.177,0,0,1,1.11,0l3.968,2.115a1.179,1.179,0,0,0,1.717-1.244l-.764-4.379a1.179,1.179,0,0,1,.336-1.046l3.267-3.2a1.179,1.179,0,0,0-.655-2.01l-4.475-.652a1.182,1.182,0,0,1-.886-.643l-2-4.03A1.18,1.18,0,0,0,104.236,77.355Z" transform="translate(67.14 665.306)"/></g></svg>