<svg xmlns="http://www.w3.org/2000/svg" width="26" height="26" viewBox="0 0 26 26"><defs><style>.a{fill:#fff;stroke:#fff;opacity:0;}.b,.d{fill:none;}.b{stroke:#fff;stroke-linejoin:round;stroke-width:1.5px;}.c{stroke:none;}</style></defs><g transform="translate(-0.044)"><g class="a" transform="translate(0.044)"><rect class="c" width="26" height="26"/><rect class="d" x="0.5" y="0.5" width="25" height="25"/></g><path class="b" d="M104.874,77.4l-2.118,4.324a1.271,1.271,0,0,1-.959.7l-4.849.7a1.269,1.269,0,0,0-.7,2.164l3.519,3.44a1.268,1.268,0,0,1,.363,1.128L99.3,94.569a1.27,1.27,0,0,0,1.847,1.34l4.265-2.273a1.267,1.267,0,0,1,1.194,0l4.27,2.276a1.269,1.269,0,0,0,1.847-1.338l-.822-4.712a1.269,1.269,0,0,1,.362-1.126l3.516-3.443a1.269,1.269,0,0,0-.705-2.163l-4.816-.7a1.272,1.272,0,0,1-.954-.692L107.151,77.4A1.27,1.27,0,0,0,104.874,77.4Z" transform="translate(-93.169 -74.542)"/></g></svg>
