<svg xmlns="http://www.w3.org/2000/svg" width="24" height="24" viewBox="0 0 24 24"><defs><style>.a{fill:#fff;stroke:#707070;opacity:0;}.b{fill:#999;}.c{stroke:none;}.d{fill:none;}</style></defs><g transform="translate(-335 -128)"><g class="a" transform="translate(335 128)"><rect class="c" width="24" height="24"/><rect class="d" x="0.5" y="0.5" width="23" height="23"/></g><path class="b" d="M-2475-242.281v-1.269h17.765v1.269Zm3.762-6.143,7.13-7.629a.285.285,0,0,1,.413.017l2.314,2.174a.285.285,0,0,1,.046.411l-7.114,7.628-3.766,1.242Zm10.712-6.389-2.313-2.157a.306.306,0,0,1-.015-.444l1.3-1.394a.306.306,0,0,1,.444-.016l2.313,2.157a.306.306,0,0,1,.015.444l-1.3,1.4a.314.314,0,0,1-.23.1A.315.315,0,0,1-2460.526-254.812Z" transform="translate(2815.03 390.521)"/></g></svg>