<?xml version="1.0" standalone="no"?><!DOCTYPE svg PUBLIC "-//W3C//DTD SVG 1.1//EN" "http://www.w3.org/Graphics/SVG/1.1/DTD/svg11.dtd"><svg t="1733927183448" class="icon" viewBox="0 0 1024 1024" version="1.1" xmlns="http://www.w3.org/2000/svg" p-id="2242" xmlns:xlink="http://www.w3.org/1999/xlink" width="200" height="200"><path d="M614.4 106.666667h-206.933333C347.733333 106.666667 298.666667 155.733333 298.666667 217.6v590.933333c0 59.733333 49.066667 110.933333 110.933333 110.933334h206.933333c59.733333 0 110.933333-49.066667 110.933334-110.933334V217.6C725.333333 155.733333 676.266667 106.666667 614.4 106.666667z m0 768h-206.933333c-36.266667 0-68.266667-29.866667-68.266667-68.266667V217.6C341.333333 179.2 371.2 149.333333 409.6 149.333333h206.933333c36.266667 0 68.266667 29.866667 68.266667 68.266667V277.333333h-149.333333c-12.8 0-21.333333 8.533333-21.333334 21.333334s8.533333 21.333333 21.333334 21.333333h149.333333v100.266667h-149.333333c-12.8 0-21.333333 8.533333-21.333334 21.333333s8.533333 21.333333 21.333334 21.333333h149.333333v100.266667h-149.333333c-12.8 0-21.333333 8.533333-21.333334 21.333333s8.533333 21.333333 21.333334 21.333334h149.333333V704h-149.333333c-12.8 0-21.333333 8.533333-21.333334 21.333333s8.533333 21.333333 21.333334 21.333334h149.333333v59.733333c-2.133333 38.4-32 68.266667-70.4 68.266667z" fill="#7A7A7A" p-id="2243"></path></svg>