<?xml version="1.0" standalone="no"?><!DOCTYPE svg PUBLIC "-//W3C//DTD SVG 1.1//EN" "http://www.w3.org/Graphics/SVG/1.1/DTD/svg11.dtd"><svg t="1734360876513" class="icon" viewBox="0 0 1024 1024" version="1.1" xmlns="http://www.w3.org/2000/svg" p-id="14940" xmlns:xlink="http://www.w3.org/1999/xlink" width="200" height="200"><path d="M0 511.990324A511.970869 511.970869 0 1 0 255.985434 68.603072 511.970869 511.970869 0 0 0 0 511.990324z" fill="#CECECE" p-id="14941"></path><path d="M511.970869 511.990324m-511.970869 0a511.970869 511.970869 0 1 0 1023.941738 0 511.970869 511.970869 0 1 0-1023.941738 0Z" fill="#6C7988" p-id="14942"></path><path d="M634.106639 160.675914a9.973193 9.973193 0 0 0-18.79957-0.491492l-64.385456 163.830678a251.377697 251.377697 0 0 0-115.091052 4.321034 248.633533 248.633533 0 0 0-102.680877 57.340737l-162.171893-110.278525a8.928772 8.928772 0 0 0-13.597946 9.788883l209.49848 717.865073s101.513584 35.182638 227.519854 14.335185c0 0 70.426713-10.464685 140.77151-44.480029 0 0 68.378829-32.438474 123.753598-84.413757z m-63.09529 380.046215a30.103887 30.103887 0 1 1-30.083408 30.103887 30.124366 30.124366 0 0 1 30.083408-30.103887z m-120.169802 30.103887a30.103887 30.103887 0 1 1-30.103887 30.083408 30.124366 30.124366 0 0 1 30.103887-30.083408z m259.75354 135.979463c-34.383964 65.388919-107.186221 110.585708-191.456626 110.585707a224.632338 224.632338 0 0 1-106.489941-26.397218 16.055406 16.055406 0 0 1-6.14365-22.526718c0.102394-0.102394 0.102394-0.204788 0.204788-0.307182a17.591319 17.591319 0 0 1 23.038689-6.553227 192.111949 192.111949 0 0 0 89.533466 21.769001c74.194818 0 137.679206-41.080543 164.772704-99.281391a12.840229 12.840229 0 0 1 20.908891-3.788584c0.901069 0.798675 1.699743 1.699743 2.600812 2.498417a19.884949 19.884949 0 0 1 3.030867 24.001195z" fill="#FFFFFF" p-id="14943"></path></svg>