<?xml version="1.0" standalone="no"?><!DOCTYPE svg PUBLIC "-//W3C//DTD SVG 1.1//EN" "http://www.w3.org/Graphics/SVG/1.1/DTD/svg11.dtd"><svg t="1733757885626" class="icon" viewBox="0 0 1211 1024" version="1.1" xmlns="http://www.w3.org/2000/svg" p-id="1318" xmlns:xlink="http://www.w3.org/1999/xlink" width="236.5234375" height="200"><path d="M1120.225464 473.838395l-247.139805 17.20302a37.597472 37.597472 0 0 0-17.715014 4.266622l7.167925-419.494262C859.432469 30.741181 821.254737-2.726201 779.561308 0.175102L378.669517 88.408842c-41.659296 2.884236-74.956013 41.386232-71.849912 86.356427l23.432288 167.183311c-5.973271 0.392529-12.151339-2.133311-18.107544-1.740782L75.073772 416.972859c-44.202203 2.86717-77.73785 41.3009-74.887747 85.844432 0 0.255997 0.034133 0.511995 0.051199 0.750926l108.474595 447.619833a77.259989 77.259989 0 0 0 82.738331 72.617904l878.463309-61.200424c42.393155-3.703428 74.273353-40.532908 72.140043-83.352725L1203.202727 549.460001c-3.089034-45.03846-41.266767-78.505842-82.977263-75.621606z m-704.36807 461.989816l-229.322392 15.940099c-2.986635 0.221864-3.1573-2.781837-3.157301-2.781837l-108.54286-447.619833c-0.170665-3.003702 2.81597-3.174367 2.81597-3.174367l251.969621-77.874382c2.969569-0.170665 3.2085 2.833037 3.2085 2.833037l83.028462 512.626084v0.051199z m369.267589-25.685064l-294.840637 20.479785-112.024424-760.841077c-0.170665-3.003702 2.81597-3.174367 2.81597-3.174367l403.81016-88.455605c2.986635-0.170665 3.2085 2.850103 3.2085 2.850104l-2.969569 829.14116z m279.924527-19.524061l-205.480509 14.335849 1.126389-331.653051c-0.170665-3.003702 2.86717-3.242633 2.867169-3.242632l259.018081-18.005145c2.969569-0.238931 3.2085 2.764771 3.208499 2.764771l-60.978559 332.796506c2.986635-0.170665 3.2085 2.833037 0.23893 3.003702z m-390.754297-557.220816l-54.100765 198.449116-62.224413 4.334888 54.100765-203.842126-54.390895 3.754627 19.831258-45.43099 67.037163-4.607951c7.850584-0.938657 15.752368 1.297053 21.947503 6.229268 6.246334 5.461276 9.915629 13.31186 10.086294 21.640306 0.409596 5.887938-0.34133 12.356137-2.28691 19.455795zM318.305351 647.353373c4.76155 21.179511-1.535984 43.280612-18.909668 66.388637a161.909767 161.909767 0 0 1-54.442095 46.403779l80.229558-18.244075-4.351955 37.11961-122.452047 27.818375 2.508774-35.959089c15.940099-11.144416 31.299938-26.845585 46.079516-47.103506 17.749147-24.234412 24.917072-43.860873 21.537907-58.759916-3.430364-15.479304-11.059084-21.828037-22.920293-19.165665l-1.484784 0.341329a26.418923 26.418923 0 0 1-3.430364 27.477045 32.870055 32.870055 0 0 1-19.831259 12.868132c-7.816451 1.877314-16.042498 0.767992-23.090957-3.106101a26.350657 26.350657 0 0 1-14.216384-18.12461 26.811452 26.811452 0 0 1 12.373203-30.719677c7.458055-5.017547 20.923514-9.762031 40.225711-14.148118 20.172588-4.607952 35.532427-6.280467 45.960051-5.068747 19.882458 2.18451 31.914332 12.799866 36.215086 31.982597z m729.080345 6.229268l-41.847027 53.622904c7.560454 4.76155 13.875054 11.263882 18.397673 18.995001 5.290611 8.60151 7.679919 17.032354 7.167925 25.292534a51.762656 51.762656 0 0 1-22.288833 40.925437c-11.46868 8.072449-26.470122 13.038796-44.987261 14.711312a201.555217 201.555217 0 0 1-40.106245-0.802125 32.733523 32.733523 0 0 1-19.882458-9.352435c-5.495409-5.119946-8.362579-12.458536-7.799385-19.96779a24.575742 24.575742 0 0 1 10.308159-18.773136 30.207683 30.207683 0 0 1 20.650449-6.058604c7.714052 0.511995 14.369982 3.413297 19.797126 8.669776 5.751406 5.597808 8.328446 12.236672 7.816451 19.96779-0.170665 3.379165-1.041056 6.690063-2.594106 9.693765 8.038316 0.170665 15.735301-3.276766 20.99178-9.403634 5.631941-6.246334 8.925773-14.301716 9.267102-22.749628a33.586847 33.586847 0 0 0-12.202538-27.886641c-6.826595-6.3658-15.359839-10.581222-24.524543-12.117206l34.559637-37.290275-60.347099-3.925292 14.165184-30.992741 113.458009 7.440988z" fill="#BABABA" p-id="1319"></path></svg>