<svg xmlns="http://www.w3.org/2000/svg" xmlns:xlink="http://www.w3.org/1999/xlink" width="18" height="18" viewBox="0 0 18 18" fill="none">
<path d="M8.24998 14.25C8.15179 14.25 8.05367 14.2476 7.95558 14.2427C7.85752 14.2379 7.75962 14.2307 7.66189 14.2211C7.56417 14.2115 7.46674 14.1995 7.3696 14.185C7.27248 14.1706 7.17577 14.1539 7.07944 14.1347C6.98315 14.1155 6.88736 14.094 6.79211 14.0702C6.69687 14.0463 6.60226 14.0201 6.50829 13.9916C6.41432 13.9631 6.32112 13.9323 6.22866 13.8993C6.1362 13.8662 6.04462 13.8308 5.95389 13.7933C5.86317 13.7557 5.77344 13.7159 5.68467 13.6739C5.5959 13.6319 5.50822 13.5878 5.42161 13.5415C5.33502 13.4952 5.24961 13.4468 5.16538 13.3964C5.08116 13.3459 4.99823 13.2934 4.91657 13.2388C4.83494 13.1842 4.75468 13.1277 4.67579 13.0692C4.59693 13.0107 4.51954 12.9504 4.44364 12.8881C4.36773 12.8258 4.2934 12.7617 4.22064 12.6957C4.14788 12.6297 4.07678 12.5621 4.00735 12.4926C3.93791 12.4232 3.87024 12.3521 3.80428 12.2793C3.73835 12.2066 3.67422 12.1322 3.61193 12.0563C3.54963 11.9804 3.48925 11.9031 3.43075 11.8242C3.37225 11.7453 3.31574 11.6651 3.26117 11.5834C3.20663 11.5018 3.15411 11.4188 3.10362 11.3346C3.05314 11.2504 3.00476 11.165 2.95846 11.0784C2.91218 10.9918 2.86804 10.9041 2.82606 10.8153C2.78409 10.7265 2.74429 10.6368 2.70671 10.5461C2.66914 10.4554 2.63381 10.3638 2.60073 10.2713C2.56765 10.1789 2.53687 10.0857 2.50836 9.99169C2.47985 9.89774 2.45366 9.80313 2.4298 9.70788C2.40595 9.61262 2.38444 9.51684 2.36529 9.42053C2.34613 9.32423 2.32935 9.2275 2.31493 9.13036C2.30053 9.03325 2.28852 8.93583 2.2789 8.83809C2.26926 8.74038 2.26204 8.64248 2.25722 8.5444C2.25241 8.44633 2.25 8.34819 2.25 8.24998C2.25 8.15179 2.25241 8.05367 2.25722 7.95558C2.26204 7.85752 2.26926 7.75962 2.2789 7.66189C2.28852 7.56417 2.30053 7.46674 2.31493 7.3696C2.32935 7.27248 2.34613 7.17577 2.36529 7.07944C2.38444 6.98315 2.40595 6.88736 2.4298 6.79211C2.45366 6.69687 2.47985 6.60226 2.50836 6.50829C2.53687 6.41432 2.56765 6.32112 2.60073 6.22866C2.63381 6.1362 2.66914 6.04461 2.70671 5.95389C2.74429 5.86317 2.78409 5.77344 2.82606 5.68467C2.86804 5.5959 2.91218 5.50822 2.95846 5.42161C3.00476 5.33502 3.05314 5.24961 3.10362 5.16538C3.15411 5.08116 3.20663 4.99823 3.26117 4.91657C3.31574 4.83494 3.37225 4.75468 3.43075 4.67579C3.48925 4.59693 3.54963 4.51954 3.61193 4.44364C3.67422 4.36773 3.73835 4.2934 3.80428 4.22064C3.87024 4.14788 3.93791 4.07678 4.00735 4.00735C4.07678 3.93791 4.14788 3.87024 4.22064 3.80428C4.2934 3.73835 4.36773 3.67422 4.44364 3.61193C4.51954 3.54963 4.59693 3.48925 4.67579 3.43075C4.75468 3.37225 4.83494 3.31574 4.91657 3.26117C4.99823 3.20663 5.08116 3.15411 5.16538 3.10362C5.24961 3.05314 5.33502 3.00476 5.42161 2.95846C5.50822 2.91218 5.5959 2.86804 5.68467 2.82606C5.77344 2.78409 5.86317 2.74429 5.95389 2.70671C6.04462 2.66914 6.1362 2.63381 6.22866 2.60073C6.32112 2.56765 6.41432 2.53687 6.50827 2.50836C6.60225 2.47985 6.69687 2.45366 6.79211 2.4298C6.88736 2.40595 6.98315 2.38444 7.07944 2.36529C7.17577 2.34613 7.27248 2.32935 7.3696 2.31493C7.46674 2.30053 7.56417 2.28852 7.66189 2.2789C7.75962 2.26926 7.85752 2.26204 7.95558 2.25722C8.05367 2.25241 8.15179 2.25 8.24998 2.25C8.34819 2.25 8.44633 2.25241 8.5444 2.25722C8.64248 2.26204 8.74038 2.26926 8.83809 2.2789C8.93583 2.28852 9.03325 2.30053 9.13037 2.31493C9.2275 2.32935 9.32423 2.34613 9.42053 2.36529C9.51684 2.38444 9.61262 2.40595 9.70788 2.4298C9.80313 2.45366 9.89774 2.47985 9.99169 2.50836C10.0857 2.53687 10.1789 2.56765 10.2713 2.60073C10.3638 2.63381 10.4554 2.66914 10.5461 2.70671C10.6368 2.74429 10.7265 2.78409 10.8153 2.82606C10.9041 2.86804 10.9918 2.91218 11.0784 2.95846C11.165 3.00476 11.2504 3.05314 11.3346 3.10362C11.4188 3.15411 11.5018 3.20663 11.5834 3.26117C11.6651 3.31574 11.7453 3.37225 11.8242 3.43075C11.9031 3.48925 11.9804 3.54963 12.0563 3.61193C12.1322 3.67422 12.2066 3.73835 12.2793 3.80428C12.3521 3.87024 12.4232 3.93791 12.4926 4.00735C12.5621 4.07678 12.6297 4.14788 12.6957 4.22064C12.7617 4.2934 12.8258 4.36773 12.8881 4.44364C12.9504 4.51954 13.0107 4.59693 13.0692 4.67579C13.1277 4.75468 13.1842 4.83494 13.2388 4.91657C13.2934 4.99823 13.3459 5.08116 13.3964 5.16538C13.4468 5.24961 13.4952 5.33502 13.5415 5.42161C13.5878 5.50822 13.6319 5.5959 13.6739 5.68467C13.7159 5.77344 13.7557 5.86317 13.7933 5.95389C13.8308 6.04461 13.8662 6.1362 13.8993 6.22866C13.9323 6.32112 13.9631 6.41432 13.9916 6.50827C14.0201 6.60225 14.0463 6.69687 14.0702 6.79211C14.094 6.88736 14.1155 6.98315 14.1347 7.07944C14.1539 7.17577 14.1706 7.27248 14.185 7.3696C14.1995 7.46674 14.2115 7.56417 14.2211 7.66189C14.2307 7.75962 14.2379 7.85752 14.2427 7.95558C14.2476 8.05367 14.25 8.15179 14.25 8.24998C14.25 8.34819 14.2476 8.44633 14.2427 8.5444C14.2379 8.64248 14.2307 8.74038 14.2211 8.83809C14.2115 8.93583 14.1995 9.03325 14.185 9.13036C14.1706 9.2275 14.1539 9.32423 14.1347 9.42053C14.1155 9.51684 14.094 9.61262 14.0702 9.70788C14.0463 9.80313 14.0201 9.89774 13.9916 9.99169C13.9631 10.0857 13.9323 10.1789 13.8993 10.2713C13.8662 10.3638 13.8308 10.4554 13.7933 10.5461C13.7557 10.6368 13.7159 10.7265 13.6739 10.8153C13.6319 10.9041 13.5878 10.9918 13.5415 11.0784C13.4952 11.165 13.4468 11.2504 13.3964 11.3346C13.3459 11.4188 13.2934 11.5018 13.2388 11.5834C13.1842 11.6651 13.1277 11.7453 13.0692 11.8242C13.0107 11.9031 12.9504 11.9804 12.8881 12.0563C12.8258 12.1322 12.7617 12.2066 12.6957 12.2793C12.6297 12.3521 12.5621 12.4232 12.4926 12.4926C12.4232 12.5621 12.3521 12.6297 12.2793 12.6957C12.2066 12.7617 12.1322 12.8258 12.0563 12.8881C11.9804 12.9504 11.9031 13.0107 11.8242 13.0692C11.7453 13.1277 11.6651 13.1842 11.5834 13.2388C11.5018 13.2934 11.4188 13.3459 11.3346 13.3964C11.2504 13.4468 11.165 13.4952 11.0784 13.5415C10.9918 13.5878 10.9041 13.6319 10.8153 13.6739C10.7265 13.7159 10.6368 13.7557 10.5461 13.7933C10.4554 13.8308 10.3638 13.8662 10.2713 13.8993C10.1789 13.9323 10.0857 13.9631 9.99169 13.9916C9.89774 14.0201 9.80313 14.0463 9.70788 14.0702C9.61262 14.094 9.51684 14.1155 9.42053 14.1347C9.32423 14.1539 9.2275 14.1706 9.13037 14.185C9.03325 14.1995 8.93583 14.2115 8.83809 14.2211C8.74038 14.2307 8.64248 14.2379 8.5444 14.2427C8.44633 14.2476 8.34819 14.25 8.24998 14.25ZM0.75 8.24998C0.75 12.3922 4.10774 15.75 8.24998 15.75C12.3922 15.75 15.75 12.3922 15.75 8.24998C15.75 4.10774 12.3922 0.75 8.24998 0.75C4.10774 0.75 0.75 4.10774 0.75 8.24998Z"   fill="#CBCBCB" >
</path>
<path d="M12.5947 12.5947C12.5861 12.6034 12.5776 12.6123 12.5694 12.6214C12.5611 12.6305 12.5531 12.6398 12.5453 12.6493C12.5376 12.6588 12.53 12.6684 12.5227 12.6783C12.5154 12.6882 12.5083 12.6982 12.5015 12.7084C12.4947 12.7186 12.4881 12.729 12.4818 12.7395C12.4755 12.75 12.4695 12.7607 12.4637 12.7715C12.4579 12.7823 12.4524 12.7933 12.4471 12.8044C12.4419 12.8155 12.4369 12.8267 12.4322 12.838C12.4275 12.8494 12.4231 12.8608 12.419 12.8724C12.4148 12.8839 12.411 12.8956 12.4075 12.9073C12.4039 12.9191 12.4006 12.9309 12.3976 12.9428C12.3946 12.9547 12.392 12.9667 12.3896 12.9787C12.3872 12.9907 12.3851 13.0028 12.3833 13.015C12.3815 13.0271 12.38 13.0393 12.3788 13.0515C12.3776 13.0637 12.3767 13.076 12.3761 13.0882C12.3755 13.1005 12.3752 13.1127 12.3752 13.125C12.3752 13.1373 12.3755 13.1495 12.3761 13.1618C12.3767 13.1741 12.3776 13.1863 12.3788 13.1985C12.38 13.2107 12.3815 13.2229 12.3833 13.235C12.3851 13.2472 12.3872 13.2592 12.3896 13.2713C12.392 13.2833 12.3946 13.2953 12.3976 13.3072C12.4006 13.3191 12.4039 13.3309 12.4075 13.3427C12.411 13.3544 12.4148 13.3661 12.419 13.3776C12.4231 13.3892 12.4275 13.4006 12.4322 13.412C12.4369 13.4233 12.4419 13.4345 12.4471 13.4456C12.4524 13.4567 12.4579 13.4677 12.4637 13.4785C12.4695 13.4893 12.4755 13.5 12.4818 13.5105C12.4881 13.521 12.4947 13.5314 12.5015 13.5416C12.5083 13.5518 12.5154 13.5618 12.5227 13.5717C12.53 13.5816 12.5376 13.5912 12.5453 13.6007C12.5531 13.6102 12.5611 13.6195 12.5694 13.6286C12.5776 13.6377 12.5861 13.6466 12.5947 13.6552L15.9697 17.0302C15.9785 17.0387 15.9874 17.0469 15.9965 17.0549C16.0057 17.0629 16.015 17.0707 16.0245 17.0782C16.034 17.0858 16.0437 17.0931 16.0536 17.1002C16.0634 17.1072 16.0734 17.1141 16.0836 17.1206C16.0938 17.1272 16.1042 17.1336 16.1147 17.1397C16.1252 17.1458 16.1358 17.1516 16.1466 17.1572C16.1574 17.1627 16.1683 17.168 16.1793 17.1731C16.1904 17.1781 16.2016 17.1829 16.2128 17.1874C16.2241 17.1919 16.2355 17.1961 16.247 17.2C16.2584 17.204 16.27 17.2077 16.2817 17.2111C16.2933 17.2144 16.305 17.2175 16.3169 17.2204C16.3287 17.2232 16.3405 17.2257 16.3525 17.2279C16.3644 17.2302 16.3764 17.2321 16.3884 17.2338C16.4004 17.2355 16.4125 17.2368 16.4246 17.2379C16.4367 17.2389 16.4488 17.2397 16.4609 17.2402C16.473 17.2407 16.4852 17.2409 16.4973 17.2408C16.5094 17.2407 16.5216 17.2403 16.5337 17.2396C16.5458 17.2389 16.5579 17.2379 16.57 17.2366C16.5821 17.2353 16.5941 17.2338 16.6061 17.2319C16.6181 17.23 16.63 17.2279 16.6419 17.2254C16.6538 17.223 16.6656 17.2202 16.6774 17.2172C16.6891 17.2142 16.7008 17.2109 16.7124 17.2073C16.724 17.2037 16.7355 17.1999 16.7469 17.1957C16.7583 17.1916 16.7696 17.1872 16.7808 17.1825C16.792 17.1778 16.8031 17.1728 16.8141 17.1676C16.825 17.1624 16.8358 17.1569 16.8465 17.1511C16.8572 17.1453 16.8677 17.1393 16.8781 17.1331C16.8885 17.1268 16.8988 17.1203 16.9088 17.1135C16.9189 17.1067 16.9288 17.0997 16.9386 17.0925C16.9483 17.0852 16.9579 17.0778 16.9672 17.0701C16.9766 17.0623 16.9858 17.0544 16.9948 17.0463C17.0038 17.0381 17.0126 17.0297 17.0211 17.0211C17.0297 17.0126 17.0381 17.0038 17.0463 16.9948C17.0544 16.9858 17.0623 16.9766 17.0701 16.9672C17.0778 16.9579 17.0853 16.9483 17.0925 16.9386C17.0997 16.9288 17.1068 16.9189 17.1135 16.9088C17.1203 16.8988 17.1268 16.8885 17.1331 16.8781C17.1393 16.8677 17.1454 16.8572 17.1511 16.8465C17.1569 16.8358 17.1624 16.825 17.1676 16.814C17.1728 16.8031 17.1778 16.792 17.1825 16.7808C17.1872 16.7696 17.1916 16.7583 17.1957 16.7469C17.1999 16.7355 17.2037 16.724 17.2073 16.7124C17.2109 16.7008 17.2142 16.6891 17.2172 16.6774C17.2203 16.6656 17.223 16.6538 17.2254 16.6419C17.2279 16.63 17.23 16.6181 17.2319 16.6061C17.2338 16.5941 17.2353 16.5821 17.2366 16.57C17.2379 16.5579 17.2389 16.5458 17.2396 16.5337C17.2403 16.5216 17.2407 16.5094 17.2408 16.4973C17.2409 16.4852 17.2407 16.473 17.2402 16.4609C17.2397 16.4488 17.239 16.4367 17.2379 16.4246C17.2368 16.4125 17.2355 16.4004 17.2338 16.3884C17.2321 16.3764 17.2302 16.3644 17.228 16.3525C17.2257 16.3405 17.2232 16.3287 17.2204 16.3169C17.2175 16.305 17.2145 16.2933 17.2111 16.2817C17.2077 16.27 17.204 16.2584 17.2001 16.2469C17.1961 16.2355 17.1919 16.2241 17.1874 16.2128C17.1829 16.2016 17.1781 16.1904 17.1731 16.1793C17.168 16.1683 17.1627 16.1574 17.1572 16.1466C17.1516 16.1358 17.1458 16.1252 17.1397 16.1147C17.1336 16.1042 17.1272 16.0938 17.1207 16.0836C17.1141 16.0734 17.1072 16.0634 17.1002 16.0536C17.0931 16.0437 17.0858 16.034 17.0782 16.0245C17.0707 16.015 17.0629 16.0057 17.0549 15.9965C17.0469 15.9874 17.0387 15.9785 17.0303 15.9697L13.6553 12.5947C13.6466 12.5861 13.6377 12.5776 13.6286 12.5694C13.6195 12.5611 13.6102 12.5531 13.6007 12.5453C13.5912 12.5375 13.5816 12.53 13.5717 12.5227C13.5618 12.5154 13.5518 12.5083 13.5416 12.5015C13.5314 12.4947 13.521 12.4881 13.5105 12.4818C13.5 12.4755 13.4893 12.4695 13.4785 12.4637C13.4677 12.4579 13.4567 12.4524 13.4456 12.4471C13.4345 12.4419 13.4233 12.4369 13.412 12.4322C13.4006 12.4275 13.3892 12.4231 13.3776 12.419C13.3661 12.4148 13.3544 12.411 13.3427 12.4074C13.3309 12.4039 13.3191 12.4006 13.3072 12.3976C13.2953 12.3946 13.2833 12.392 13.2713 12.3896C13.2593 12.3872 13.2472 12.3851 13.235 12.3833C13.2229 12.3815 13.2107 12.38 13.1985 12.3788C13.1863 12.3776 13.1741 12.3767 13.1618 12.376C13.1495 12.3755 13.1373 12.3752 13.125 12.3752C13.1127 12.3752 13.1005 12.3755 13.0882 12.376C13.076 12.3767 13.0637 12.3776 13.0515 12.3788C13.0393 12.38 13.0271 12.3815 13.015 12.3833C13.0028 12.3851 12.9907 12.3872 12.9787 12.3896C12.9667 12.392 12.9547 12.3946 12.9428 12.3976C12.9309 12.4006 12.9191 12.4039 12.9073 12.4074C12.8956 12.411 12.8839 12.4148 12.8724 12.419C12.8608 12.4231 12.8494 12.4275 12.838 12.4322C12.8267 12.4369 12.8155 12.4419 12.8044 12.4471C12.7933 12.4524 12.7823 12.4579 12.7715 12.4637C12.7607 12.4695 12.75 12.4755 12.7395 12.4818C12.729 12.4881 12.7186 12.4947 12.7084 12.5015C12.6982 12.5083 12.6882 12.5154 12.6783 12.5227C12.6684 12.53 12.6588 12.5375 12.6493 12.5453C12.6398 12.5531 12.6305 12.5611 12.6214 12.5694C12.6123 12.5776 12.6034 12.5861 12.5947 12.5947Z"   fill="#CBCBCB" >
</path>
</svg>
