<?xml version="1.0" standalone="no"?><!DOCTYPE svg PUBLIC "-//W3C//DTD SVG 1.1//EN" "http://www.w3.org/Graphics/SVG/1.1/DTD/svg11.dtd"><svg t="1733785758951" class="icon" viewBox="0 0 1024 1024" version="1.1" xmlns="http://www.w3.org/2000/svg" p-id="2875" xmlns:xlink="http://www.w3.org/1999/xlink" width="200" height="200"><path d="M413.38085 1014.553636a508.672144 508.672144 0 0 1-175.945937-70.20469 513.780628 513.780628 0 0 1-185.386115-206.952957A508.632576 508.632576 0 0 1 1.540822 552.388897h268.094409a235.275575 235.275575 0 0 0 28.422581 77.470692 237.593448 237.593448 0 0 0 410.677967 0 235.358877 235.358877 0 0 0 28.430911-77.470692h278.257231c2.2908 0 4.47539-0.093715 6.518367-0.276978a512.26037 512.26037 0 0 1-608.561438 462.4438z m-57.894764-501.893459a147.906545 147.906545 0 1 1 147.906544 147.906545 147.904462 147.904462 0 0 1-147.898214-147.90238z m666.206297-43.316946a73.901209 73.901209 0 0 0-6.268462-0.25407H737.220836a235.379702 235.379702 0 0 0-28.368434-77.587314 237.593448 237.593448 0 0 0-410.907047 0A235.30473 235.30473 0 0 0 269.581085 469.087078H1.78448a511.725156 511.725156 0 0 1 1019.912068 0.254071z" p-id="2876"></path></svg>
