<svg xmlns="http://www.w3.org/2000/svg" xmlns:xlink="http://www.w3.org/1999/xlink" width="18" height="18" viewBox="0 0 18 18" fill="none">
<path d="M5.88881 16.1126C5.25749 16.5049 4.43194 16.302 4.0485 15.6634C4.03727 15.6447 4.02652 15.6257 4.0162 15.6065C4.0059 15.5872 3.99605 15.5677 3.98668 15.548C3.97731 15.5283 3.96844 15.5084 3.96002 15.4882C3.9516 15.4681 3.94369 15.4478 3.93625 15.4272C3.92882 15.4067 3.92189 15.386 3.91546 15.3652C3.90902 15.3443 3.9031 15.3233 3.89767 15.3022C3.89225 15.281 3.88735 15.2598 3.88294 15.2384C3.87854 15.217 3.87466 15.1955 3.8713 15.174C3.86794 15.1524 3.8651 15.1308 3.86277 15.1091C3.86044 15.0874 3.85864 15.0656 3.85738 15.0438C3.8561 15.0221 3.85536 15.0003 3.85513 14.9784C3.8549 14.9566 3.8552 14.9348 3.85602 14.913C3.85685 14.8912 3.85819 14.8694 3.86007 14.8477C3.86195 14.8259 3.86434 14.8042 3.86727 14.7826C3.87019 14.761 3.87362 14.7394 3.87758 14.718C3.88153 14.6965 3.88601 14.6751 3.89101 14.6539L4.70812 11.1692C4.70934 11.1642 4.71037 11.1591 4.71124 11.154C4.7121 11.1488 4.7128 11.1437 4.71333 11.1385C4.71384 11.1334 4.71419 11.1282 4.71436 11.1231C4.71454 11.1179 4.71454 11.1127 4.71436 11.1075C4.71419 11.1023 4.71384 11.0972 4.71333 11.092C4.7128 11.0868 4.7121 11.0817 4.71124 11.0766C4.71037 11.0715 4.70932 11.0664 4.70811 11.0613C4.70689 11.0563 4.70552 11.0513 4.70398 11.0464C4.70243 11.0414 4.70072 11.0365 4.69884 11.0317C4.69696 11.0269 4.69492 11.0221 4.69273 11.0174C4.69053 11.0127 4.68819 11.0081 4.68568 11.0035C4.68316 10.999 4.68051 10.9946 4.6777 10.9902C4.6749 10.9859 4.67195 10.9816 4.66885 10.9774C4.66576 10.9733 4.66253 10.9692 4.65915 10.9653C4.65579 10.9613 4.6523 10.9575 4.64867 10.9538C4.64505 10.9501 4.64131 10.9465 4.63744 10.9431L1.96276 8.61243C1.40719 8.1287 1.34306 7.28268 1.818 6.71869C1.83209 6.70194 1.84658 6.68552 1.86147 6.66945C1.87637 6.6534 1.89165 6.63772 1.90732 6.62243C1.92297 6.60714 1.939 6.59223 1.95541 6.57771C1.97182 6.56321 1.98857 6.54911 2.00567 6.53544C2.02276 6.52176 2.04019 6.50852 2.05794 6.49569C2.0757 6.48288 2.09376 6.4705 2.11212 6.45857C2.13049 6.44665 2.14915 6.43519 2.16807 6.42417C2.187 6.41318 2.20618 6.40265 2.22564 6.39258C2.24509 6.38252 2.26478 6.37296 2.2847 6.36386C2.30462 6.35479 2.32476 6.34619 2.34512 6.33809C2.36546 6.33 2.38599 6.32242 2.40671 6.31536C2.42744 6.30827 2.44833 6.30172 2.46938 6.29567C2.49042 6.28961 2.51161 6.28409 2.53292 6.27908C2.55424 6.27409 2.57567 6.26962 2.5972 6.26567C2.61875 6.26173 2.64037 6.25834 2.66209 6.25545C2.68379 6.25257 2.70555 6.25023 2.72737 6.24844L6.23756 5.9625C6.31406 5.95611 6.38249 5.90568 6.41382 5.82899L7.76624 2.52132C8.04805 1.83226 8.83181 1.50319 9.51562 1.7925C9.53574 1.80105 9.55566 1.81009 9.57533 1.81962C9.59502 1.82915 9.61446 1.83915 9.63365 1.84963C9.65285 1.8601 9.67178 1.87104 9.69043 1.88245C9.7091 1.89385 9.72747 1.9057 9.74555 1.91801C9.76363 1.93031 9.7814 1.94305 9.79885 1.95622C9.81631 1.96939 9.83345 1.98298 9.85023 1.99699C9.86702 2.01099 9.88346 2.0254 9.89954 2.04021C9.91562 2.05502 9.93136 2.07022 9.9467 2.08581C9.96205 2.10139 9.97699 2.11734 9.99156 2.13366C10.0061 2.14997 10.0203 2.16663 10.034 2.18363C10.0478 2.20063 10.0611 2.21796 10.074 2.23561C10.0869 2.25327 10.0994 2.27123 10.1114 2.2895C10.1234 2.30777 10.135 2.32632 10.1461 2.34516C10.1572 2.36399 10.1679 2.38308 10.1781 2.40242C10.1882 2.42177 10.1979 2.44136 10.2072 2.46119C10.2164 2.48102 10.2251 2.50106 10.2334 2.52132L11.5858 5.82881C11.6171 5.90568 11.6856 5.95631 11.7621 5.9625L15.2726 6.24861C16.0087 6.30863 16.5538 6.95981 16.4955 7.69913C16.4938 7.72091 16.4916 7.74263 16.4888 7.76429C16.4861 7.78598 16.4828 7.80757 16.479 7.82906C16.4753 7.85058 16.4709 7.87199 16.4661 7.89329C16.4613 7.9146 16.4559 7.93578 16.4501 7.95682C16.4442 7.97788 16.4379 7.99876 16.431 8.01949C16.4241 8.04023 16.4168 8.0608 16.4089 8.08117C16.4011 8.10156 16.3927 8.12174 16.3839 8.14169C16.375 8.16168 16.3657 8.18143 16.3559 8.20095C16.3461 8.22048 16.3359 8.23976 16.3251 8.2588C16.3144 8.2778 16.3032 8.29655 16.2916 8.31505C16.2799 8.33354 16.2679 8.35171 16.2553 8.36961C16.2428 8.38752 16.2299 8.40512 16.2165 8.4224C16.2031 8.43966 16.1893 8.4566 16.1752 8.4732C16.161 8.48979 16.1464 8.50605 16.1314 8.52194C16.1164 8.53785 16.1011 8.55337 16.0853 8.56852C16.0696 8.58367 16.0535 8.59844 16.0371 8.6128L13.3624 10.9434C13.3001 10.9976 13.272 11.0854 13.2917 11.1694L14.1088 14.6541C14.2779 15.375 13.8388 16.1014 13.122 16.2752C13.1007 16.2804 13.0793 16.285 13.0578 16.2891C13.0362 16.2932 13.0146 16.2968 12.9929 16.2998C12.9712 16.3028 12.9495 16.3053 12.9276 16.3073C12.9058 16.3092 12.884 16.3106 12.862 16.3115C12.8402 16.3124 12.8183 16.3127 12.7963 16.3125C12.7744 16.3122 12.7525 16.3115 12.7307 16.3102C12.7088 16.3088 12.687 16.307 12.6652 16.3046C12.6434 16.3022 12.6217 16.2993 12.6001 16.2958C12.5784 16.2923 12.5569 16.2883 12.5354 16.2838C12.514 16.2792 12.4927 16.2741 12.4715 16.2685C12.4503 16.2629 12.4293 16.2568 12.4084 16.2502C12.3875 16.2435 12.3668 16.2363 12.3463 16.2287C12.3258 16.221 12.3055 16.2128 12.2853 16.2041C12.2652 16.1954 12.2454 16.1863 12.2257 16.1766C12.206 16.1669 12.1866 16.1568 12.1674 16.1462C12.1483 16.1355 12.1294 16.1244 12.1108 16.1128L9.10538 14.2453C9.10144 14.2429 9.09743 14.2405 9.09334 14.2383C9.08924 14.2362 9.08508 14.2341 9.08084 14.2322C9.0766 14.2303 9.07231 14.2286 9.06795 14.227C9.06359 14.2254 9.05918 14.224 9.05474 14.2227C9.05027 14.2214 9.04577 14.2203 9.04123 14.2193C9.0367 14.2183 9.03213 14.2175 9.02754 14.2169C9.02295 14.2162 9.01833 14.2157 9.01371 14.2154C9.00908 14.2151 9.00444 14.2149 8.9998 14.2149C8.99516 14.2149 8.99052 14.2151 8.9859 14.2154C8.98128 14.2157 8.97667 14.2162 8.97208 14.2169C8.96749 14.2175 8.96292 14.2183 8.95837 14.2193C8.95384 14.2203 8.94934 14.2214 8.94489 14.2227C8.94042 14.224 8.93601 14.2254 8.93165 14.227C8.92731 14.2286 8.923 14.2303 8.91877 14.2322C8.91453 14.2341 8.91037 14.2362 8.90627 14.2383C8.90217 14.2405 8.89817 14.2429 8.89425 14.2453L5.88862 16.1128L5.88881 16.1126Z"   fill="#F7CA5C" >
</path>
</svg>
