<?xml version="1.0" standalone="no"?><!DOCTYPE svg PUBLIC "-//W3C//DTD SVG 1.1//EN" "http://www.w3.org/Graphics/SVG/1.1/DTD/svg11.dtd"><svg t="1733670191335" class="icon" viewBox="0 0 1024 1024" version="1.1" xmlns="http://www.w3.org/2000/svg" p-id="7635" xmlns:xlink="http://www.w3.org/1999/xlink" width="200" height="200"><path d="M856.1536 592.7168l-109.248-182.8352c-2.048-4.3136-5.6832-6.9632-9.8944-6.9632h-452.096c-4.1216 0-7.8464 2.1632-9.9072 6.9632L165.76 592.7168c-1.088 1.0752-1.088 2.1632-1.088 4.3136V820.736c0 6.9504 4.1216 11.264 10.9824 11.264H846.848c6.7584 0 10.9696-4.3136 10.9696-11.264V597.0304c-0.576-1.664-0.576-2.7392-1.664-4.3136z m-564.48-166.7712h439.168l98.368 160.2048h-241.536c-6.7584 0-10.9696 4.3136-10.9696 11.264 0 37.1456-29.696 67.712-65.5488 67.712-35.8656 0-65.5488-30.6688-65.5488-67.712 0-6.9504-4.1216-11.264-10.9824-11.264h-241.92l98.9696-160.2048z m543.7184 384H186.5344V608.8064H424.832c5.6832 44.0832 42.624 79.0656 86.3232 79.0656 43.6992 0 81.1264-34.9824 86.3232-79.0656h238.4V809.856h-0.4864v0.1024z m-721.1776-106.496v-12.352a5.8624 5.8624 0 0 0-5.6832-5.888 5.8624 5.8624 0 0 0-5.6832 5.888v12.352h-11.9552a5.7984 5.7984 0 0 0-5.6832 5.8752c0 3.2256 2.6496 5.888 5.6832 5.888h11.9552v12.3392c0 3.2256 2.6496 5.8752 5.6832 5.8752a5.7984 5.7984 0 0 0 5.6832-5.888v-12.3392h11.9552a5.7984 5.7984 0 0 0 5.6832-5.888 5.8624 5.8624 0 0 0-5.6832-5.8624h-11.9552z m784.6656-244.672h18.2272c4.6976 0 8.8192 4.3136 8.8192 9.1136 0 5.376-3.6224 9.1136-8.832 9.1136h-18.2144v18.816c0 4.7872-4.1216 9.1008-8.8192 9.1008a8.8448 8.8448 0 0 1-8.8192-9.1136v-18.816h-18.2272c-4.6976 0-8.8192-4.3008-8.8192-9.1008 0-5.3888 3.6224-9.1136 8.832-9.1136h18.2144v-18.816c0-4.8 4.1216-9.1136 8.832-9.1136 5.184 0 8.8064 3.7248 8.8064 9.1136v18.816z m63.9872 80.1536h11.4688c3.136 0 5.6704 2.6368 5.6704 5.8752s-2.6368 5.888-5.6704 5.888h-11.4688v11.84c0 3.2384-2.6496 5.888-5.6832 5.888-3.136 0-5.6832-2.6496-5.6832-5.3888v-11.8656h-11.4688a5.7984 5.7984 0 0 1-5.6832-5.8752c0-3.2384 2.6496-5.888 5.6832-5.888h11.4688v-12.3392c0-3.2256 2.6496-5.888 5.6832-5.888 3.136 0 5.6832 2.6624 5.6832 5.888v11.8656zM129.3056 443.776V424.96a8.8448 8.8448 0 0 0-8.832-9.1008c-5.184 0-8.8064 4.3136-8.8064 9.1136v18.3168H93.9264c-5.184 0-8.8064 4.3136-8.8064 9.1136 0 5.3888 4.096 9.1136 8.8064 9.1136h17.7408v18.3296c0 5.376 4.1216 9.1008 8.8192 9.1008 5.1968 0 8.8192-4.3008 8.8192-9.1008v-18.3296h17.728c5.1968 0 8.832-4.3136 8.832-9.1136a8.8576 8.8576 0 0 0-8.832-9.1136c0 0.4864-17.728 0.4864-17.728 0.4864z m-80.64 183.3344C28.864 627.1104 12.8 610.4576 12.8 589.9776c0-20.48 16.1664-37.1328 35.8656-37.1328 19.7888 0 35.8656 16.64 35.8656 37.12 0.0896 20.9792-16.0768 37.1456-35.8656 37.1456z m0-18.3168c9.8944 0 17.728-8.0384 17.728-18.3296 0-10.1888-7.8336-18.3168-17.728-18.3168s-17.7408 8.0256-17.7408 18.3168c0.1024 10.2912 7.8464 18.3296 17.7408 18.3296z m954.752-102.6944c-8.8064 0-16.64-7.552-16.64-17.2416 0-9.7024 7.2448-17.2544 16.64-17.2544 8.832 0 16.6656 7.552 16.6656 17.2544 0 9.7024-7.2448 17.2416-16.6528 17.2416z m0-8.0384c4.7232 0 8.3456-3.712 8.3456-8.6144 0-4.9024-3.6224-8.6272-8.3328-8.6272-4.6976 0-8.32 3.712-8.32 8.6272 0 4.8 4.2112 8.6144 8.32 8.6144z m-723.712-270.528c7.2576-7.552 19.2-7.552 26.56 0l66.6368 68.288c7.2448 7.552 7.2448 19.8912 0 27.4432-7.2576 7.552-19.2 7.552-26.56 0l-66.6368-68.3008a20.0192 20.0192 0 0 1 0-27.4304z m231.552-34.3936c10.3808 0 18.7136 8.6144 18.7136 19.392v96.8192c0 10.7776-8.3328 19.392-18.7264 19.392-10.3808 0-18.7136-8.6144-18.7136-19.392v-96.8192c-0.576-10.2784 8.32-19.392 18.7136-19.392-0.4864 0 0 0 0 0zM743.2704 222.72c7.2448 7.5392 7.2448 19.8912 0 27.4304l-66.048 68.3008c-7.2448 7.5392-19.2 7.5392-26.5472 0a20.0192 20.0192 0 0 1 0-27.4432l66.048-68.288a18.4064 18.4064 0 0 1 26.5472 0z" fill="#8a8a8a" p-id="7636"></path></svg>