<?xml version="1.0" standalone="no"?><!DOCTYPE svg PUBLIC "-//W3C//DTD SVG 1.1//EN" "http://www.w3.org/Graphics/SVG/1.1/DTD/svg11.dtd"><svg t="1733931232062" class="icon" viewBox="0 0 1024 1024" version="1.1" xmlns="http://www.w3.org/2000/svg" p-id="17162" xmlns:xlink="http://www.w3.org/1999/xlink" width="200" height="200"><path d="M512 183.138462a23.630769 23.630769 0 0 1 3.820308 46.946461L512 230.4H293.966769c-33.161846 0-60.376615 25.403077-63.291077 57.777231l-0.275692 5.789538v436.066462c0 33.161846 25.403077 60.376615 57.777231 63.291077l5.789538 0.275692h436.066462c33.161846 0 60.376615-25.403077 63.291077-57.777231l0.275692-5.789538V512a23.630769 23.630769 0 0 1 46.946462-3.820308l0.315076 3.820308v218.033231a110.828308 110.828308 0 0 1-104.093538 110.631384l-6.734769 0.196923H293.966769a110.828308 110.828308 0 0 1-110.631384-104.093538l-0.196923-6.734769V293.966769a110.828308 110.828308 0 0 1 104.093538-110.631384l6.734769-0.196923H512z" fill="#7A7A7A" p-id="17163"></path><path d="M777.334154 191.566769a23.630769 23.630769 0 0 1 38.596923 26.939077l-2.441846 3.465846-348.829539 414.247385a23.630769 23.630769 0 0 1-38.596923-26.939077l2.441846-3.505231 348.829539-414.208z" fill="#7A7A7A" p-id="17164"></path></svg>