<?xml version="1.0" standalone="no"?><!DOCTYPE svg PUBLIC "-//W3C//DTD SVG 1.1//EN" "http://www.w3.org/Graphics/SVG/1.1/DTD/svg11.dtd"><svg t="1733927132595" class="icon" viewBox="0 0 1024 1024" version="1.1" xmlns="http://www.w3.org/2000/svg" p-id="1319" xmlns:xlink="http://www.w3.org/1999/xlink" width="200" height="200"><path d="M426.666667 970.666667c-231.68 0-330.666667-98.986667-330.666667-330.666667V384c0-231.68 98.986667-330.666667 330.666667-330.666667h170.666666c231.68 0 330.666667 98.986667 330.666667 330.666667v256c0 231.68-98.986667 330.666667-330.666667 330.666667h-170.666666zM160 384v256c0 196.693333 69.973333 266.666667 266.666667 266.666667h170.666666c196.693333 0 266.666667-69.973333 266.666667-266.666667V384c0-196.693333-69.973333-266.666667-266.666667-266.666667h-170.666666C229.973333 117.333333 160 187.306667 160 384z" fill="#7A7A7A" p-id="1320"></path><path d="M621.653333 526.933333a165.333333 165.333333 0 0 0-219.306666 0c-6.826667 6.4-16.213333 8.96-26.026667 7.68a31.914667 31.914667 0 0 1-22.613333-14.933333l-93.013334-149.333333a32.554667 32.554667 0 0 1 5.973334-40.96 369.749333 369.749333 0 0 1 490.666666 0c11.52 10.24 14.08 27.733333 5.973334 40.96l-93.013334 149.333333a33.28 33.28 0 0 1-22.613333 14.933333c-1.706667 0-3.413333 0.426667-4.693333 0.426667-7.68 0-15.36-2.986667-21.333334-8.106667z m12.373334-70.4l59.733333-96c-107.946667-80.213333-256-80.213333-363.946667 0l59.733334 96c37.546667-23.893333 79.786667-35.413333 122.453333-35.413333s84.906667 11.946667 122.026667 35.413333z" fill="#7A7A7A" p-id="1321"></path></svg>