<svg xmlns="http://www.w3.org/2000/svg" xmlns:xlink="http://www.w3.org/1999/xlink" width="14.999794006347656" height="14.625244140625" viewBox="0 0 14.999794006347656 14.625244140625" fill="none">
<path d="M4.38883 14.4252C3.75752 14.8175 2.93196 14.6146 2.54853 13.976C2.5373 13.9573 2.52654 13.9383 2.51622 13.919C2.50592 13.8998 2.49607 13.8803 2.48671 13.8606C2.47734 13.8409 2.46846 13.821 2.46004 13.8008C2.45162 13.7807 2.44371 13.7604 2.43627 13.7398C2.42884 13.7193 2.42191 13.6986 2.41548 13.6778C2.40905 13.6569 2.40312 13.6359 2.39769 13.6148C2.39228 13.5936 2.38737 13.5724 2.38296 13.551C2.37857 13.5296 2.37468 13.5081 2.37132 13.4866C2.36797 13.465 2.36512 13.4434 2.3628 13.4217C2.36046 13.4 2.35867 13.3782 2.3574 13.3564C2.35612 13.3347 2.35538 13.3129 2.35515 13.291C2.35492 13.2692 2.35522 13.2474 2.35605 13.2256C2.35687 13.2038 2.35821 13.182 2.36009 13.1602C2.36197 13.1385 2.36436 13.1168 2.3673 13.0952C2.37022 13.0736 2.37364 13.052 2.3776 13.0306C2.38155 13.0091 2.38604 12.9877 2.39103 12.9665L3.20815 9.4818C3.20936 9.47675 3.2104 9.47167 3.21126 9.46656C3.21212 9.46144 3.21282 9.45631 3.21335 9.45114C3.21386 9.44599 3.21421 9.44082 3.21439 9.43565C3.21456 9.43047 3.21456 9.42528 3.21439 9.42008C3.21421 9.41491 3.21386 9.40974 3.21335 9.40458C3.21282 9.39943 3.21212 9.39429 3.21126 9.3892C3.2104 9.38408 3.20934 9.379 3.20813 9.37394C3.20692 9.36891 3.20555 9.36392 3.204 9.35898C3.20245 9.35402 3.20075 9.34913 3.19887 9.34428C3.19698 9.33947 3.19495 9.3347 3.19275 9.32999C3.19055 9.3253 3.18821 9.32068 3.1857 9.31614C3.18319 9.31161 3.18053 9.30716 3.17772 9.30282C3.17492 9.29846 3.17197 9.29419 3.16888 9.29004C3.16578 9.28587 3.16255 9.28181 3.15917 9.27787C3.15582 9.27394 3.15232 9.2701 3.1487 9.26641C3.14508 9.2627 3.14133 9.25912 3.13747 9.25565L0.462781 6.92502C-0.0927877 6.44129 -0.156913 5.59527 0.318025 5.03128C0.33211 5.01453 0.346602 4.99811 0.361496 4.98204C0.37639 4.96599 0.391672 4.95032 0.407339 4.93502C0.422996 4.91973 0.439028 4.90482 0.455433 4.8903C0.471839 4.8758 0.488591 4.8617 0.505689 4.84803C0.522787 4.83435 0.540212 4.82112 0.557966 4.80828C0.57572 4.79547 0.593778 4.78309 0.612142 4.77116C0.630516 4.75924 0.649169 4.74778 0.668093 4.73676C0.68702 4.72577 0.706208 4.71524 0.725662 4.70517C0.745115 4.69512 0.764803 4.68555 0.784724 4.67645C0.804645 4.66738 0.824785 4.65878 0.84514 4.65068C0.865483 4.64259 0.886014 4.63502 0.906734 4.62795C0.927464 4.62087 0.948353 4.61431 0.9694 4.60826C0.990448 4.6022 1.01163 4.59668 1.03294 4.59167C1.05426 4.58668 1.07569 4.58221 1.09723 4.57826C1.11877 4.57432 1.14039 4.57093 1.16211 4.56804C1.18381 4.56516 1.20557 4.56282 1.22739 4.56103L4.73758 4.27509C4.81408 4.26871 4.88251 4.21827 4.91384 4.14158L6.26626 0.833915C6.54808 0.144852 7.33183 -0.184215 8.01564 0.10509C8.03577 0.113645 8.05568 0.122686 8.07535 0.132213C8.09504 0.141741 8.11448 0.151743 8.13368 0.162219C8.15287 0.172696 8.1718 0.183635 8.19045 0.195038C8.20912 0.206439 8.22749 0.218294 8.24558 0.230599C8.26365 0.242903 8.28142 0.25564 8.29887 0.268813C8.31633 0.281985 8.33347 0.295573 8.35026 0.309577C8.36704 0.32358 8.38348 0.337989 8.39956 0.352802C8.41565 0.367613 8.43138 0.382813 8.44672 0.398399C8.46207 0.413984 8.47701 0.429934 8.49158 0.446247C8.50616 0.462559 8.52031 0.479216 8.53405 0.496222C8.5478 0.513225 8.56112 0.530552 8.57403 0.5482C8.58693 0.565859 8.59939 0.583826 8.61141 0.602095C8.62344 0.620364 8.635 0.638914 8.64613 0.657747C8.65726 0.676578 8.66791 0.695668 8.67809 0.715016C8.68826 0.734363 8.69797 0.753952 8.7072 0.77378C8.71642 0.793608 8.72514 0.813653 8.73339 0.833915L10.0858 4.14141C10.1171 4.21827 10.1856 4.2689 10.2621 4.27509L13.7726 4.56121C14.5088 4.62122 15.0538 5.2724 14.9955 6.01172C14.9938 6.0335 14.9916 6.05522 14.9889 6.07688C14.9861 6.09857 14.9828 6.12016 14.9791 6.14165C14.9753 6.16317 14.971 6.18458 14.9661 6.20589C14.9613 6.22719 14.956 6.24837 14.9501 6.26941C14.9443 6.29047 14.9379 6.31135 14.931 6.33208C14.9242 6.35282 14.9168 6.37339 14.9089 6.39376C14.9011 6.41415 14.8927 6.43433 14.8839 6.45428C14.8751 6.47427 14.8657 6.49403 14.856 6.51354C14.8462 6.53307 14.8359 6.55235 14.8252 6.57139C14.8144 6.59039 14.8033 6.60915 14.7916 6.62764C14.78 6.64613 14.7679 6.66431 14.7554 6.6822C14.7428 6.70011 14.7299 6.71771 14.7165 6.73499C14.7031 6.75225 14.6894 6.76919 14.6752 6.78579C14.661 6.80238 14.6464 6.81864 14.6314 6.83453C14.6164 6.85044 14.6011 6.86596 14.5854 6.88111C14.5696 6.89627 14.5535 6.91103 14.5371 6.92539L11.8624 9.25602C11.8001 9.31022 11.772 9.39798 11.7917 9.48197L12.6088 12.9667C12.778 13.6876 12.3388 14.414 11.622 14.5878C11.6007 14.593 11.5793 14.5976 11.5578 14.6017C11.5363 14.6058 11.5147 14.6094 11.4929 14.6124C11.4713 14.6154 11.4495 14.6179 11.4277 14.6199C11.4058 14.6218 11.384 14.6232 11.3621 14.6241C11.3402 14.6249 11.3183 14.6253 11.2964 14.625C11.2744 14.6248 11.2526 14.624 11.2307 14.6227C11.2088 14.6214 11.187 14.6196 11.1652 14.6172C11.1434 14.6148 11.1217 14.6118 11.1001 14.6084C11.0784 14.6049 11.0569 14.6009 11.0355 14.5963C11.014 14.5918 10.9927 14.5867 10.9715 14.5811C10.9504 14.5755 10.9293 14.5694 10.9085 14.5628C10.8876 14.5561 10.8669 14.5489 10.8463 14.5413C10.8258 14.5336 10.8055 14.5254 10.7854 14.5167C10.7653 14.508 10.7454 14.4989 10.7257 14.4892C10.706 14.4795 10.6866 14.4694 10.6675 14.4587C10.6483 14.4481 10.6294 14.437 10.6108 14.4254L7.6054 12.5579C7.60146 12.5555 7.59746 12.5531 7.59336 12.5509C7.58926 12.5488 7.5851 12.5467 7.58086 12.5448C7.57663 12.5429 7.57234 12.5412 7.56798 12.5396C7.56362 12.538 7.55921 12.5366 7.55476 12.5353C7.55029 12.534 7.54579 12.5329 7.54126 12.5319C7.53672 12.5309 7.53215 12.5301 7.52756 12.5295C7.52298 12.5288 7.51835 12.5283 7.51373 12.528C7.50911 12.5277 7.50447 12.5275 7.49983 12.5275C7.49519 12.5275 7.49055 12.5277 7.48592 12.528C7.4813 12.5283 7.47669 12.5288 7.47211 12.5295C7.46752 12.5301 7.46295 12.5309 7.4584 12.5319C7.45386 12.5329 7.44936 12.534 7.44491 12.5353C7.44045 12.5366 7.43604 12.538 7.43168 12.5396C7.42733 12.5412 7.42303 12.5429 7.41879 12.5448C7.41456 12.5467 7.41039 12.5488 7.40629 12.5509C7.4022 12.5531 7.39819 12.5555 7.39427 12.5579L4.38864 14.4254L4.38883 14.4252Z"   fill="#000000" >
</path>
</svg>
