<svg xmlns="http://www.w3.org/2000/svg" width="24" height="24" viewBox="0 0 24 24"><defs><style>.a{fill:#fff;stroke:#707070;opacity:0;}.b{fill:#de4535;stroke:#de4535;stroke-linejoin:round;}.b,.c{stroke-width:1.5px;}.c,.e{fill:none;}.c{stroke:#fff;}.d{stroke:none;}</style></defs><g transform="translate(-39.5 -741)"><g class="a" transform="translate(39.5 741)"><rect class="d" width="24" height="24"/><rect class="e" x="0.5" y="0.5" width="23" height="23"/></g><g transform="translate(36.509 737)"><path class="b" d="M-539.009-978.8v-6.3a2.168,2.168,0,0,1,2.1-1.9h2.4v.1l3.6-8.1a2.7,2.7,0,0,1,2.7,2.7v3.6h5.4a1.8,1.8,0,0,1,1.379.619,1.8,1.8,0,0,1,.421,1.451l-1.242,8.1a1.8,1.8,0,0,1-1.8,1.53h-12.9A2.08,2.08,0,0,1-539.009-978.8Z" transform="translate(545.009 1001)"/></g><line class="c" y2="12.5" transform="translate(46 749.5)"/></g></svg>