<svg xmlns="http://www.w3.org/2000/svg" width="26" height="26" viewBox="0 0 26 26"><defs><style>.a{fill:#fff;stroke:#fff;opacity:0;}.b,.d{fill:none;}.b{stroke:#fff;stroke-linejoin:round;stroke-width:1.5px;}.c{stroke:none;}</style></defs><g transform="translate(-0.132)"><g class="a" transform="translate(0.132)"><rect class="c" width="26" height="26"/><rect class="d" x="0.5" y="0.5" width="25" height="25"/></g><g transform="translate(3.238 2.152)"><path class="b" d="M21.779,12.779V8.905A2.905,2.905,0,0,0,18.874,6L15,14.716V25.369H26.254a1.937,1.937,0,0,0,1.937-1.646l1.336-8.716a1.937,1.937,0,0,0-1.937-2.227Z" transform="translate(-10.158 -6)"/><path class="b" d="M10.842,22H8.257A2.332,2.332,0,0,0,6,24.044v6.779A2.237,2.237,0,0,0,8.257,32.76h2.586Z" transform="translate(-6 -13.391)"/></g></g></svg>
