<svg xmlns="http://www.w3.org/2000/svg" width="26" height="26" viewBox="0 0 26 26"><defs><style>.a{fill:#fff;stroke:#fff;opacity:0;}.b,.c,.e{fill:none;}.b,.c{stroke:#fff;stroke-linecap:round;stroke-miterlimit:10;stroke-width:1.5px;}.b{stroke-linejoin:round;}.d{stroke:none;}</style></defs><g transform="translate(-0.088)"><g class="a" transform="translate(0.088)"><rect class="d" width="26" height="26"/><rect class="e" x="0.5" y="0.5" width="25" height="25"/></g><g transform="translate(2.69 4.604)"><path class="b" d="M0,1.535A1.535,1.535,0,0,1,1.535,0H18.606A1.535,1.535,0,0,1,20.14,1.535V13.263A1.535,1.535,0,0,1,18.606,14.8H11.062s-1.581.633-3.086,1.22-2.154.865-2.934,1.127c-.085-.662-.186-2.347-.186-2.347H1.535A1.535,1.535,0,0,1,0,13.263Z" transform="translate(0 0)"/><path class="c" d="M0,.5H.959" transform="translate(9.591 7.173)"/><path class="c" d="M0,.5H.959" transform="translate(14.386 7.173)"/><path class="c" d="M0,.5H.959" transform="translate(4.795 7.173)"/></g></g></svg>
