<svg xmlns="http://www.w3.org/2000/svg" width="26" height="26" viewBox="0 0 26 26"><defs><style>.a{fill:#fff;stroke:#707070;opacity:0;}.b,.d{fill:none;}.b{stroke:#333;stroke-linecap:round;stroke-linejoin:round;stroke-width:1.5px;}.c{stroke:none;}</style></defs><g class="a"><rect class="c" width="26" height="26"/><rect class="d" x="0.5" y="0.5" width="25" height="25"/></g><path class="b" d="M140.287,78.072l8.364,8.365a1.345,1.345,0,0,1-.028,1.93l-8.364,7.9a1.347,1.347,0,0,1-2.271-.979V92.735a1.354,1.354,0,0,0-1.506-1.346,13.5,13.5,0,0,0-8.741,5.216,1.348,1.348,0,0,1-2.37-1.052c.97-7.424,4.251-12.142,11.378-12.623a1.338,1.338,0,0,0,1.239-1.337V79.024A1.347,1.347,0,0,1,140.287,78.072Z" transform="translate(-124.284 -75.55)"/></svg>