<svg xmlns="http://www.w3.org/2000/svg" xmlns:xlink="http://www.w3.org/1999/xlink" fill="none" version="1.1" width="40" height="40" viewBox="0 0 40 40"><g><g><rect x="0" y="0" width="40" height="40" rx="0" fill="#D9D9D9" fill-opacity="0"/></g><g><g><path d="M3.939553942565918,5.20619056640625C3.939553942565918,5.20619056640625,2.914423942565918,7.79457056640625,2.914423942565918,7.79457056640625C2.914423942565918,7.79457056640625,16.031223942565916,7.79457056640625,16.031223942565916,7.79457056640625C16.031223942565916,7.79457056640625,16.031223942565916,5.58582056640625,16.031223942565916,5.58582056640625C16.031223942565916,5.58582056640625,6.588003942565917,3.75064976640625,6.588003942565917,3.75064976640625C6.046833942565918,3.64578756640625,5.486173942565918,3.73379656640625,5.002703942565918,3.99950556640625C4.5192339425659185,4.26521456640625,4.143233942565918,4.69197056640625,3.939553942565918,5.20619056640625Z" fill="#FFC627" fill-opacity="1"/></g><g><path d="M9.734547452697754,1.911851859375C9.734547452697754,1.911851859375,8.284287452697754,4.121210859375,8.284287452697754,4.121210859375C8.284287452697754,4.121210859375,18.345587452697753,6.119250859375,18.345587452697753,6.119250859375C18.345587452697753,6.119250859375,18.791287452697752,5.634880859375,18.791287452697752,5.634880859375C18.791287452697752,5.634880859375,12.617567452697754,1.349976859375,12.617567452697754,1.349976859375C12.392527452697754,1.193782859375,12.138677452697754,1.084303859375,11.870917452697753,1.027968259375C11.603157452697754,0.971632259375,11.326887452697754,0.969573959375,11.058327452697753,1.021914159375C10.789767452697754,1.074254359375,10.534327452697754,1.179938859375,10.306997452697754,1.3327618593750001C10.079677452697753,1.4855848593749998,9.885047452697753,1.682467859375,9.734547452697754,1.911851859375Z" fill="#F7A614" fill-opacity="1"/></g><g><path d="M36.1448905090332,5.2062274609375C36.1448905090332,5.2062274609375,37.169990509033205,7.7946074609375,37.169990509033205,7.7946074609375C37.169990509033205,7.7946074609375,24.051990509033203,7.7946074609375,24.051990509033203,7.7946074609375C24.051990509033203,7.7946074609375,24.051990509033203,5.5858574609375005,24.051990509033203,5.5858574609375005C24.051990509033203,5.5858574609375005,33.4952405090332,3.7506839609375,33.4952405090332,3.7506839609375C34.03660050903321,3.6455149609375,34.59749050903321,3.7333740609375,35.0812905090332,3.9991034609375C35.5649905090332,4.2648334609375,35.941190509033206,4.6917644609375,36.1448905090332,5.2062274609375Z" fill="#FFC627" fill-opacity="1"/></g><g><path d="M30.351716465454103,1.911826015625C30.351716465454103,1.911826015625,31.7989864654541,4.121186015625,31.7989864654541,4.121186015625C31.7989864654541,4.121186015625,21.7376174654541,6.119226015625,21.7376174654541,6.119226015625C21.7376174654541,6.119226015625,21.2919864654541,5.634856015625,21.2919864654541,5.634856015625C21.2919864654541,5.634856015625,27.465676465454102,1.3499510156249999,27.465676465454102,1.3499510156249999C27.6908264654541,1.193277015625,27.944906465454103,1.083405015625,28.2129764654541,1.026804615625C28.481036465454103,0.970203815625,28.757676465454104,0.968016915625,29.0265964654541,1.020372615625C29.2955164654541,1.072728215625,29.5512964654541,1.178568015625,29.7788664654541,1.331664015625C30.0064364654541,1.484759015625,30.2012064654541,1.682017015625,30.351716465454103,1.911826015625Z" fill="#F7A614" fill-opacity="1"/></g><g><path d="M2.6901112451171874,7.85089111328125C2.6901112451171874,7.85089111328125,37.43055124511719,7.85089111328125,37.43055124511719,7.85089111328125C39.14355124511719,7.85089111328125,39.99995124511719,8.71085911328125,39.99995124511719,10.43079111328125C39.99995124511719,10.43079111328125,39.99995124511719,14.16290111328125,39.99995124511719,14.16290111328125C39.99995124511719,15.88284111328125,39.14355124511719,16.74281111328125,37.43055124511719,16.74281111328125C37.43055124511719,16.74281111328125,2.6901112451171874,16.74281111328125,2.6901112451171874,16.74281111328125C0.9771372451171875,16.74281111328125,0.1206512451171875,15.88284111328125,0.1206512451171875,14.16290111328125C0.1206512451171875,14.16290111328125,0.1206512451171875,10.43079111328125,0.1206512451171875,10.43079111328125C0.1206512451171875,8.71085911328125,0.9771372451171875,7.85089111328125,2.6901112451171874,7.85089111328125Z" fill="#F42B1C" fill-opacity="1"/></g><g><path d="M2.237230062484741,16.7427978515625C2.237230062484741,16.7427978515625,37.88343006248474,16.7427978515625,37.88343006248474,16.7427978515625C37.88343006248474,16.7427978515625,37.88343006248474,31.900697851562498,37.88343006248474,31.900697851562498C37.88343006248474,33.1160978515625,37.40253006248474,34.2817978515625,36.54653006248474,35.141197851562495C35.69063006248474,36.0006978515625,34.52963006248474,36.483497851562504,33.319130062484746,36.483497851562504C33.319130062484746,36.483497851562504,6.801470062484741,36.483497851562504,6.801470062484741,36.483497851562504C5.590960062484742,36.483497851562504,4.430020062484742,36.0006978515625,3.574060062484741,35.141197851562495C2.718103062484741,34.2817978515625,2.237230062484741,33.1160978515625,2.237230062484741,31.900697851562498C2.237230062484741,31.900697851562498,2.237230062484741,16.7427978515625,2.237230062484741,16.7427978515625Z" fill="#FF6648" fill-opacity="1"/></g><g><path d="M15.121897467773438,16.742862890625C15.121897467773438,16.742862890625,24.998729467773437,16.742862890625,24.998729467773437,16.742862890625C24.998729467773437,16.742862890625,24.998729467773437,36.484162890625,24.998729467773437,36.484162890625C24.998729467773437,36.484162890625,15.121897467773438,36.484162890625,15.121897467773438,36.484162890625C15.121897467773438,36.484162890625,15.121897467773438,16.742862890625,15.121897467773438,16.742862890625ZM25.098829467773438,7.794622890625C25.098829467773438,7.794622890625,14.928329467773438,7.794622890625,14.928329467773438,7.794622890625C14.928329467773438,7.794622890625,15.913659467773437,3.748271890625,15.913659467773437,3.748271890625C15.982149467773437,3.466840890625,16.142759467773438,3.216647890625,16.369759467773438,3.037803890625C16.59675946777344,2.858959290625,16.876989467773438,2.761821603625,17.165519467773436,2.761963044871C17.165519467773436,2.761963044871,22.86222946777344,2.761963044871,22.86222946777344,2.761963044871C23.150769467773436,2.761821603625,23.43099946777344,2.858959290625,23.65798946777344,3.037803890625C23.884989467773437,3.216647890625,24.04560946777344,3.466840890625,24.11408946777344,3.748271890625C24.11408946777344,3.748271890625,25.098829467773438,7.794622890625,25.098829467773438,7.794622890625Z" fill="#FFC627" fill-opacity="1"/></g><g><path d="M14.807138805236816,7.2357177734375C14.807138805236816,7.2357177734375,25.275473805236814,7.2357177734375,25.275473805236814,7.2357177734375C25.870473805236816,7.2357177734375,26.167973805236816,7.5344147734375,26.167973805236816,8.1318107734375C26.167973805236816,8.1318107734375,26.167973805236816,16.4061477734375,26.167973805236816,16.4061477734375C26.167973805236816,17.0035477734375,25.870473805236816,17.302217773437498,25.275473805236814,17.302217773437498C25.275473805236814,17.302217773437498,14.807138805236816,17.302217773437498,14.807138805236816,17.302217773437498C14.212161805236816,17.302217773437498,13.914673805236816,17.0035477734375,13.914673805236816,16.4061477734375C13.914673805236816,16.4061477734375,13.914673805236816,8.1318107734375,13.914673805236816,8.1318107734375C13.914673805236816,7.5344147734375,14.212161805236816,7.2357177734375,14.807138805236816,7.2357177734375Z" fill="#FFB624" fill-opacity="1"/></g></g></g></svg>