<svg xmlns="http://www.w3.org/2000/svg" xmlns:xlink="http://www.w3.org/1999/xlink" fill="none" version="1.1" width="24" height="24" viewBox="0 0 24 24"><defs><clipPath id="master_svg0_0_225"><rect x="0" y="0" width="24" height="24" rx="0"/></clipPath></defs><g clip-path="url(#master_svg0_0_225)"><g><path d="M0,18.2454C0,17.5833,0.154743,17.0068,0.46423,16.5158C0.773894,16.0246,1.20878,15.6448,1.76889,15.3764C2.92728,14.8301,4.0334,14.4153,5.08726,14.1318C6.14112,13.8484,7.30352,13.7067,8.57447,13.7067C9.84327,13.7067,11.0007,13.8484,12.0467,14.1318C13.0927,14.4153,14.1974,14.8303,15.3608,15.3769C15.9063,15.6414,16.338,16.0195,16.6561,16.511400000000002C16.9741,17.0033,17.1331,17.5808,17.1331,18.244C17.1331,18.244,17.1331,19.1298,17.1331,19.1298C17.1331,19.6394,16.9589,20.0785,16.6103,20.4471C16.2619,20.8157,15.8265,21,15.3041,21C15.3041,21,1.82909,21,1.82909,21C1.31019,21,0.87557,20.8209,0.525235,20.4627C0.175078,20.1047,0,19.6604,0,19.1298C0,19.1298,0,18.2454,0,18.2454ZM22.1682,21C22.1682,21,18.5205,21,18.5205,21C18.6612,20.7213,18.7785,20.4264,18.8723,20.1153C18.9662,19.8041,19.0131,19.4756,19.0131,19.1298C19.0131,19.1298,19.0131,18.3709,19.0131,18.3709C19.0131,17.5062,18.8211,16.6644,18.4373,15.8455C18.0534,15.0264,17.4197,14.3519,16.5362,13.8219C17.6225,13.9448,18.6413,14.1316,19.5926,14.3822C20.5439,14.6329,21.3774,14.9476,22.093,15.326C22.692,15.6625,23.1596,16.0783,23.4956,16.5732C23.8319,17.068199999999997,24,17.5942,24,18.1512C24,18.1512,24,19.1298,24,19.1298C24,19.6604,23.8219,20.1047,23.4657,20.4627C23.1094,20.8209,22.677,21,22.1682,21ZM8.56564,11.41496C7.38656,11.41496,6.40539,11.01453,5.62213,10.21368C4.83869,9.41264,4.44697,8.41245,4.44697,7.21309C4.44697,6.01372,4.83869,5.011699999999999,5.62213,4.20702C6.40539,3.40234,7.38352,3,8.55654,3C9.72956,3,10.7096,3.4017020000000002,11.4966,4.2051099999999995C12.2836,5.00833,12.6771,6.00798,12.6771,7.20406C12.6771,8.40944,12.2843,9.41264,11.4987,10.21368C10.713,11.01453,9.73526,11.41496,8.56564,11.41496ZM18.7891,7.20406C18.7891,8.40944,18.3964,9.41264,17.611,10.21368C16.8254,11.01453,15.847,11.41496,14.6758,11.41496C14.4946,11.41496,14.2763,11.39863,14.0211,11.36598C13.7658,11.33316,13.5541,11.284,13.3859,11.21853C13.8052,10.683589999999999,14.1186,10.07744,14.3261,9.40006C14.5336,8.72287,14.6373,7.99342,14.6373,7.21172C14.6373,6.43002,14.5301,5.711790000000001,14.3157,5.05703C14.1014,4.40226,13.7915,3.779786,13.3859,3.189589C13.5814,3.131773,13.796,3.0857209,14.0299,3.0514326C14.2639,3.0171443,14.4787,3,14.6742,3C15.8463,3,16.8252,3.4017020000000002,17.6108,4.2051099999999995C18.3963,5.00833,18.7891,6.00798,18.7891,7.20406ZM1.80849,19.1509C1.80849,19.1509,15.3247,19.1509,15.3247,19.1509C15.3247,19.1509,15.3247,18.2481,15.3247,18.2481C15.3247,17.9772,15.2647,17.738,15.1449,17.5302C15.0252,17.3223,14.842,17.1599,14.5953,17.043C13.5255,16.5318,12.5239,16.156100000000002,11.5905,15.9161C10.6569,15.6759,9.64706,15.5558,8.56109,15.5558C7.47494,15.5558,6.46336,15.6759,5.52634,15.9161C4.58914,16.156100000000002,3.59156,16.5318,2.5336,17.043C2.28708,17.1599,2.1046,17.3223,1.98615,17.5302C1.86771,17.738,1.80849,17.9772,1.80849,18.2481C1.80849,18.2481,1.80849,19.1509,1.80849,19.1509ZM8.55788,9.565850000000001C9.20825,9.565850000000001,9.75596,9.339780000000001,10.201,8.88765C10.6461,8.43534,10.8686,7.87669,10.8686,7.21172C10.8686,6.54674,10.645,5.98673,10.1978,5.53168C9.7506,5.07663,9.20182,4.84911,8.55146,4.84911C7.90109,4.84911,7.35579,5.07782,6.91555,5.53524C6.47549,5.9924800000000005,6.25546,6.55358,6.25546,7.21856C6.25546,7.88353,6.47665,8.44099,6.91903,8.89093C7.36123,9.34088,7.90751,9.565850000000001,8.55788,9.565850000000001Z" fill="#FDC446" fill-opacity="1"/></g></g></svg>