<svg xmlns="http://www.w3.org/2000/svg" xmlns:xlink="http://www.w3.org/1999/xlink" fill="none" version="1.1" width="24" height="24" viewBox="0 0 24 24"><defs><clipPath id="master_svg0_0_165"><rect x="0" y="0" width="24" height="24" rx="0"/></clipPath></defs><g clip-path="url(#master_svg0_0_165)"><g><path d="M12.0019,23Q9.71964,23,7.7116,22.1339C6.37291,21.5565,5.20848,20.7729,4.2183,19.783Q2.7330300000000003,18.2983,1.866383,16.2911Q1,14.2838,1,12.0019Q1,9.71964,1.866117,7.7116Q2.73223,5.70357,4.21697,4.2183Q5.7017,2.7330300000000003,7.70893,1.866384Q9.71617,1,11.9981,1Q14.2804,1,16.2884,1.866117Q18.2964,2.73223,19.7817,4.21697Q21.267,5.7017,22.1336,7.70893Q23,9.71617,23,11.9981Q23,14.2804,22.1339,16.2884C21.5565,17.6271,20.7729,18.7915,19.783,19.7817Q18.2983,21.267,16.2911,22.1336Q14.2838,23,12.0019,23ZM12.0019,21Q13.8706,21,15.4983,20.2975Q17.1543,19.5824,18.3686,18.3677Q19.5828,17.153,20.2974,15.4963Q21,13.8674,21,11.9981Q21,10.12938,20.2975,8.501719999999999Q19.5824,6.8457,18.3677,5.63143Q17.153,4.4171700000000005,15.4963,3.70257Q13.8674,3,11.9981,3Q10.12937,3,8.501719999999999,3.70255Q6.8457,4.41755,5.63143,5.63226Q4.4171700000000005,6.84696,3.70257,8.50371Q3,10.13257,3,12.0019Q3,13.8706,3.70255,15.4983Q4.41755,17.1543,5.63226,18.3686Q6.84695,19.5828,8.50371,20.2974Q10.13258,21,12.0019,21Z" fill-rule="evenodd" fill="#E8EAED" fill-opacity="1"/></g><g><path d="M6.8385009765625,9.44927294921875Q6.8385009765625,10.09802294921875,7.2925009765625,10.552772949218749Q7.7467509765625,11.00777294921875,8.3955009765625,11.00777294921875C8.8280009765625,11.00777294921875,9.195830976562501,10.85635294921875,9.499000976562499,10.553522949218749Q9.9537509765625,10.09952294921875,9.9537509765625,9.45077294921875Q9.9537509765625,8.80202394921875,9.499750976562499,8.34727294921875Q9.0455009765625,7.89227333664875,8.3967509765625,7.89227294921875C7.9642509765625,7.89227294921875,7.5964179765625,8.04368894921875,7.2932509765625,8.34652194921875Q6.8385010063648,8.80052194921875,6.8385009765625,9.44927294921875ZM14.0462509765625,9.44927294921875C14.0462509765625,9.88177294921875,14.197580976562499,10.249602949218751,14.5002509765625,10.552772949218749Q14.9545009765625,11.00777294921875,15.6032509765625,11.00777294921875C16.0357509765625,11.00777294921875,16.403580976562502,10.85635294921875,16.7067509765625,10.553522949218749Q17.1615009765625,10.09952294921875,17.1615009765625,9.45077294921875C17.1615009765625,9.01827294921875,17.0102009765625,8.65043994921875,16.7075009765625,8.34727294921875Q16.253250976562498,7.89227333664875,15.6045009765625,7.89227294921875C15.1720009765625,7.89227294921875,14.8041709765625,8.04368894921875,14.5010009765625,8.34652194921875Q14.0462509765625,8.80052194921875,14.0462509765625,9.44927294921875ZM7.3260009765625,14.488522949218751C7.1985009765625,14.780852949218751,7.2321669765625,15.07635294921875,7.4270009765625,15.37502294921875Q8.1980009765625,16.52702294921875,9.4155009765625,17.10952294921875Q10.6327509765625,17.69227294921875,12.0042509765625,17.69227294921875Q13.402250976562499,17.69227294921875,14.644500976562501,17.04227294921875C15.4725009765625,16.60894294921875,16.1427509765625,16.00235294921875,16.6552509765625,15.22252294921875C16.8184209765625,14.97552294921875,16.830830976562503,14.718352949218751,16.6925009765625,14.45102294921875C16.5541709765625,14.183692949218749,16.332920976562498,14.05002294921875,16.0287509765625,14.05002294921875C15.8597509765625,14.05002294921875,15.7066709765625,14.093602949218749,15.5695009765625,14.180772949218749C15.4321709765625,14.26794294921875,15.3032509765625,14.37885294921875,15.1827509765625,14.51352294921875Q14.6077509765625,15.27702294921875,13.780250976562499,15.68852294921875Q12.9525009765625,16.10002294921875,12.0000009765625,16.10002294921875C11.3650009765625,16.10002294921875,10.7715809765625,15.96285294921875,10.2197509765625,15.68852294921875Q9.3922509765625,15.27702294921875,8.8172509765625,14.51352294921875C8.7032509765625,14.37885294921875,8.5775809765625,14.26794294921875,8.4402509765625,14.180772949218749C8.3029209765625,14.093602949218749,8.1497509765625,14.05002294921875,7.9807509765625,14.05002294921875C7.6717509765625,14.05002294921875,7.4535009765625,14.19619294921875,7.3260009765625,14.488522949218751Z" fill="#E8EAED" fill-opacity="1"/></g></g></svg>