<svg xmlns="http://www.w3.org/2000/svg" xmlns:xlink="http://www.w3.org/1999/xlink" fill="none" version="1.1" width="24" height="24" viewBox="0 0 24 24"><defs><clipPath id="master_svg0_0_136"><rect x="0" y="0" width="24" height="24" rx="0"/></clipPath></defs><g clip-path="url(#master_svg0_0_136)"><g><path d="M18.6894,20.0116L16.0045,17.2138L8.02421,17.2138L5.33926,20.0116Q4.89352,20.4867,4.30065,20.7433Q3.70778,21,3.06247,21C2.11602,21,1.34301,20.5834,0.743437,19.7502Q-0.155626,18.500500000000002,0.0325775,16.9466L1.27862,7.50248Q1.50703,5.58952,2.87893,4.29476Q4.25112,3,6.1148,3L17.8848,3Q19.7365,3,21.0999,4.29476Q22.4634,5.58952,22.7209,7.50248L23.967,16.9466C24.0924,17.9411,23.8603,18.865299999999998,23.2707,19.7192C22.6808,20.5731,21.9127,21,20.9662,21C20.536,21,20.1233,20.9144,19.728,20.7433C19.3328,20.5722,18.9866,20.3283,18.6894,20.0116ZM3.06247,19Q3.29345,19,3.5061,18.907899999999998Q3.71854,18.816000000000003,3.89625,18.6267L7.17158,15.2138L16.8571,15.2138L20.148,18.6432Q20.3102,18.816000000000003,20.5226,18.907899999999998Q20.7352,19,20.9662,19Q21.3367,19,21.625,18.582700000000003Q22.0753,17.9306,21.9842,17.208199999999998L20.7388,7.76933Q20.5753,6.5546299999999995,19.7227,5.74503Q18.9382,5,17.8848,5L6.1148,5Q5.04574,5,4.25166,5.74927Q3.40698,6.54646,3.26144,7.76409L2.01807,17.1871Q1.92371,17.9661,2.3668,18.582Q2.66757,19,3.06247,19Z" fill-rule="evenodd" fill="#E8EAED" fill-opacity="1"/></g><g><path d="M16.2669,9.15321C16.0253,9.39724,15.7306,9.51926,15.3829,9.51926C15.0351,9.51926,14.74044,9.39724,14.49883,9.15321C14.25741,8.90899,14.13669,8.61113,14.13669,8.25963C14.13669,7.908132,14.25741,7.610271,14.49883,7.366049C14.74044,7.122017,15.0351,7,15.3829,7C15.7306,7,16.0253,7.122017,16.2669,7.366049C16.5083,7.610271,16.628999999999998,7.908132,16.628999999999998,8.25963C16.628999999999998,8.61113,16.5083,8.90899,16.2669,9.15321ZM18.637900000000002,12.633949999999999C18.3963,12.87798,18.101599999999998,13,17.7538,13C17.406100000000002,13,17.1114,12.87798,16.869799999999998,12.633949999999999C16.6284,12.38973,16.5077,12.09187,16.5077,11.74037C16.5077,11.38887,16.6284,11.09101,16.869799999999998,10.84679C17.1114,10.60276,17.406100000000002,10.48074,17.7538,10.48074C18.101599999999998,10.48074,18.3963,10.60276,18.637900000000002,10.84679C18.8793,11.09101,19,11.38887,19,11.74037C19,12.09187,18.8793,12.38973,18.637900000000002,12.633949999999999ZM6.97581,12.025680000000001C6.97581,12.025680000000001,6.97581,10.93723,6.97581,10.93723C6.97581,10.93723,5.898992,10.93723,5.898992,10.93723C5.639315,10.93723,5.42461,10.85126,5.254879,10.67932C5.0849596,10.50737,5,10.29025,5,10.02796C5,9.76567,5.0849596,9.54874,5.254879,9.37718C5.42461,9.20561,5.639315,9.11983,5.898992,9.11983C5.898992,9.11983,6.97581,9.11983,6.97581,9.11983C6.97581,9.11983,6.97581,8.03138,6.97581,8.03138C6.97581,7.768902,7.06086,7.551879,7.23097,7.380314C7.40108,7.20856,7.61587,7.122683,7.875360000000001,7.122683C8.13485,7.122683,8.34946,7.20856,8.51919,7.380314C8.68893,7.551879,8.77379,7.768902,8.77379,8.03138C8.77379,8.03138,8.77379,9.11983,8.77379,9.11983C8.77379,9.11983,9.85061,9.11983,9.85061,9.11983C10.11028,9.11983,10.32499,9.2058,10.494720000000001,9.377749999999999C10.66464,9.54969,10.749600000000001,9.76681,10.749600000000001,10.0291C10.749600000000001,10.29139,10.66464,10.50832,10.494720000000001,10.67989C10.32499,10.85145,10.11028,10.93723,9.85061,10.93723C9.85061,10.93723,8.77379,10.93723,8.77379,10.93723C8.77379,10.93723,8.77379,12.025680000000001,8.77379,12.025680000000001C8.77379,12.288160000000001,8.68874,12.50518,8.51863,12.67675C8.34852,12.8485,8.13372,12.93438,7.87424,12.93438C7.61475,12.93438,7.40014,12.8485,7.2303999999999995,12.67675C7.06067,12.50518,6.97581,12.288160000000001,6.97581,12.025680000000001Z" fill="#E8EAED" fill-opacity="1"/></g></g></svg>